<?xml version="1.0" encoding="UTF-8" standalone="no"?>
<!DOCTYPE svg PUBLIC "-//W3C//DTD SVG 1.1//EN" "http://www.w3.org/Graphics/SVG/1.1/DTD/svg11.dtd" [
   <!ENTITY stroke_color "#666666">
   <!ENTITY fill_color "#FFFFFF">
]>
<!-- Created with Inkscape (http://www.inkscape.org/) -->

<svg
   xmlns:dc="http://purl.org/dc/elements/1.1/"
   xmlns:cc="http://creativecommons.org/ns#"
   xmlns:rdf="http://www.w3.org/1999/02/22-rdf-syntax-ns#"
   xmlns:svg="http://www.w3.org/2000/svg"
   xmlns="http://www.w3.org/2000/svg"
   xmlns:sodipodi="http://sodipodi.sourceforge.net/DTD/sodipodi-0.dtd"
   xmlns:inkscape="http://www.inkscape.org/namespaces/inkscape"
   width="54.8689"
   height="55.000004"
   id="svg2"
   version="1.1"
   inkscape:version="0.48.2 r9819"
   sodipodi:docname="activity-enyo.svg">
  <defs
     id="defs4" />
  <sodipodi:namedview
     id="base"
     pagecolor="#ffffff"
     bordercolor="#666666"
     borderopacity="1.0"
     inkscape:pageopacity="0.0"
     inkscape:pageshadow="2"
     inkscape:zoom="3.9378078"
     inkscape:cx="61.434798"
     inkscape:cy="26.180673"
     inkscape:document-units="px"
     inkscape:current-layer="layer1"
     showgrid="false"
     inkscape:window-width="1280"
     inkscape:window-height="737"
     inkscape:window-x="-8"
     inkscape:window-y="-8"
     inkscape:window-maximized="1"
     fit-margin-top="5"
     fit-margin-left="7"
     fit-margin-right="7"
     fit-margin-bottom="5" />
  <metadata
     id="metadata7">
    <rdf:RDF>
      <cc:Work
         rdf:about="">
        <dc:format>image/svg+xml</dc:format>
        <dc:type
           rdf:resource="http://purl.org/dc/dcmitype/StillImage" />
        <dc:title />
      </cc:Work>
    </rdf:RDF>
  </metadata>
  <g
     inkscape:label="Calque 1"
     inkscape:groupmode="layer"
     id="layer1"
     transform="translate(-125.9662,-324.05782)">
    <path
       style="fill:#FFFFFF"
       d="m 514.45072,857.60725 c -2.69854,-2.05979 -15.29854,-11.21623 -28,-20.34764 l -23.09357,-16.60257 -0.27903,-13.77165 c -0.25911,-12.78847 -0.15202,-13.73746 1.5,-13.29262 0.97847,0.26348 11.67903,6.99589 23.77903,14.96093 12.1,7.96504 24.50498,16.072 27.56663,18.01546 l 5.56663,3.53357 26.0206,-17.12027 c 28.90341,-19.01703 31.01732,-20.28203 32.09463,-19.20605 0.41333,0.41282 0.90792,6.51388 1.0991,13.5579 l 0.34758,12.80732 -28.62401,20.36027 c -15.7432,11.19816 -29.62461,20.47056 -30.84758,20.60535 -1.31126,0.14452 -4.23665,-1.2915 -7.13001,-3.5 z m 36.65643,-19.64896 27.75,-19.69684 -0.0153,-9.19964 c -0.0161,-9.64983 -0.81618,-12.50885 -3.12289,-11.15889 -0.74899,0.43833 -12.89446,8.37098 -26.98992,17.62811 -14.09548,9.25713 -26.34734,16.83115 -27.22637,16.83115 -1.66609,0 -14.15673,-7.79687 -40.92833,-25.54815 l -15.78282,-10.46501 0.28282,11.15467 0.28281,11.15467 23.09357,16.60191 c 12.70146,9.13105 25.29927,18.25296 27.99513,20.27091 2.69586,2.01795 5.35376,3.32137 5.90643,2.89648 0.55268,-0.4249 13.49237,-9.63611 28.75487,-20.46937 z m -50.44594,-30.37922 c -10.83276,-6.99429 -23.77026,-15.32427 -28.75,-18.51108 l -9.05406,-5.79418 0,-13.45582 c 0,-11.19112 0.24819,-13.45581 1.47462,-13.45581 1.21839,0 52.80362,29.48195 56.02538,32.01958 0.55818,0.43966 9.61548,-4.24525 20.5,-10.60366 10.725,-6.26522 20.0625,-11.39685 20.75,-11.40361 0.9409,-0.009 1.25,3.44034 1.25,13.95043 l 0,13.96274 -5.9768,4.05876 c -11.76325,7.98828 -34.37723,22.01515 -35.4402,21.98265 -0.59565,-0.0182 -9.94617,-5.75571 -20.77894,-12.75 z m 39.69594,-1.78722 c 9.9,-6.35952 18.57799,-12.12689 19.28443,-12.81637 0.92996,-0.90763 1.20594,-4.31233 1,-12.33682 l -0.28443,-11.08323 -18.5,10.86113 c -17.77121,10.43327 -21.47163,12.01207 -23.55,10.04775 -0.96087,-0.90815 -52.54014,-31.10213 -53.13062,-31.10213 -0.17566,0 -0.31938,4.93012 -0.31938,10.95581 l 0,10.95582 9.05274,5.79418 c 4.97901,3.18681 17.46651,11.26405 27.75,17.94943 10.28349,6.68538 19.14726,12.19617 19.69726,12.24621 0.55,0.05 9.1,-5.11226 19,-11.47178 z m -48.71681,-42.2602 -28.7168,-15.66947 -0.0332,-13.75 c -0.0301,-12.46363 0.13053,-13.74438 1.71681,-13.68989 0.9625,0.0331 14.10517,6.25423 29.20594,13.8248 l 27.45593,13.76469 28.34089,-13.8248 c 15.58749,-7.60364 28.78252,-13.8248 29.32229,-13.8248 0.6074,0 0.87536,5.18471 0.70317,13.6052 l -0.27822,13.6052 -28.5,15.8499 c -15.675,8.71745 -28.95,15.83387 -29.5,15.81427 -0.55,-0.0196 -13.92256,-7.08689 -29.71681,-15.7051 z m 57.93327,-2.56394 27.78354,-15.39447 0.28225,-11.05171 0.28225,-11.05171 -17.28225,8.30511 c -9.50524,4.56781 -21.88657,10.61859 -27.51408,13.44618 -5.62751,2.82759 -10.88989,5.14107 -11.69419,5.14107 -0.80429,0 -13.64609,-6.075 -28.53733,-13.5 -14.89123,-7.425 -27.29135,-13.5 -27.55581,-13.5 -0.26446,0 -0.46682,5.0625 -0.44968,11.25 l 0.0312,11.25 27.71884,15.14504 c 15.24536,8.32978 28.04125,15.19228 28.4353,15.25 0.39406,0.0577 13.21906,-6.82255 28.5,-15.28951 z"
       id="path2996"
       inkscape:connector-curvature="0" />
    <path
       style="fill:&fill_color;;stroke:&stroke_color;"
       d="m 150.83544,372.93566 c -0.93463,-0.65853 -5.29859,-3.58588 -9.6977,-6.50522 l -7.99837,-5.30792 -0.0966,-4.40286 c -0.0897,-4.08853 -0.0527,-4.39193 0.51952,-4.24971 0.33889,0.0842 4.04498,2.23662 8.23578,4.78308 4.19079,2.54645 8.49012,5.14 9.55406,5.76344 l 1.93446,1.13352 7.42157,-4.51813 c 10.55537,-6.42594 12.47163,-7.55533 12.81926,-7.55533 0.16923,0 0.30768,2.00826 0.30768,4.46277 l 0,4.46279 -9.88001,6.48709 c -5.43402,3.56791 -10.22659,6.52236 -10.65016,6.56545 -0.45414,0.0462 -1.46734,-0.41289 -2.46945,-1.11897 z"
       id="path3762" />
    <path
       style="fill:&fill_color;;stroke:&stroke_color;"
       d="m 163.53125,366.65381 9.61112,-6.29717 0,-3.51189 0,-3.5119 -0.77927,0.37795 c -0.42861,0.20788 -4.77358,2.80254 -9.65549,5.76592 -4.88192,2.96339 -9.12531,5.38798 -9.42975,5.38798 -0.57705,0 -4.90313,-2.49269 -14.17537,-8.16786 l -5.46633,-3.34569 0.0979,3.56618 0.0979,3.5662 7.99839,5.30771 c 4.3991,2.91923 8.7623,5.83555 9.69601,6.48069 0.9337,0.64514 1.85425,1.06186 2.04567,0.92603 0.19141,-0.13586 4.67303,-3.08072 9.95913,-6.54415 z"
       id="path3760" />
    <path
       style="fill:&fill_color;;stroke:&stroke_color;"
       d="m 146.0595,356.94144 c -3.7519,-2.23612 -8.23275,-4.89924 -9.95747,-5.91808 l -3.13583,-1.85242 0,-4.30188 c 0,-3.57785 0.086,-4.30188 0.51072,-4.30188 0.42199,0 18.28835,9.4255 19.40419,10.23679 0.19332,0.14056 3.33029,-1.35722 7.1001,-3.39004 3.71457,-2.00302 6.94857,-3.64361 7.18669,-3.64577 0.32587,-0.002 0.43293,1.09988 0.43293,4.46001 l 0,4.46394 -2.07005,1.29761 c -4.07415,2.55388 -11.90642,7.03833 -12.27457,7.02795 -0.20631,-0.006 -3.44482,-1.84013 -7.19671,-4.07623 z"
       id="path3758" />
    <path
       style="fill:&fill_color;;stroke:&stroke_color;"
       d="m 159.80804,356.37006 c 3.42882,-2.03317 6.43442,-3.87703 6.67909,-4.09746 0.32209,-0.29017 0.41768,-1.37866 0.34634,-3.94413 l -0.0985,-3.54335 -6.40741,3.47235 c -6.15499,3.33555 -7.43661,3.8403 -8.15645,3.2123 -0.33279,-0.29033 -18.19709,-9.94347 -18.40159,-9.94347 -0.0608,0 -0.11061,1.57617 -0.11061,3.5026 l 0,3.50263 3.13537,1.85242 c 1.72446,1.01884 6.04946,3.60117 9.61112,5.73851 3.56164,2.13735 6.63157,3.89918 6.82207,3.91518 0.19049,0.016 3.15175,-1.63442 6.58058,-3.66758 z"
       id="path3756" />
    <path
       style="fill:&fill_color;;stroke:&stroke_color;"
       d="m 142.93515,342.85929 -9.94596,-5.0096 -0.0115,-4.39593 c -0.0104,-3.98468 0.0452,-4.39414 0.59461,-4.37673 0.33335,0.0106 4.88527,1.99951 10.11537,4.41986 l 9.50926,4.40062 9.81576,-4.41984 c 5.39868,-2.43092 9.96873,-4.41985 10.15566,-4.41985 0.21038,0 0.30318,1.65757 0.24355,4.34965 l -0.0964,4.34963 -9.87088,5.06728 c -5.42897,2.787 -10.02672,5.06216 -10.2172,5.05589 -0.1905,-0.007 -4.82203,-2.26571 -10.29232,-5.02098 z"
       id="path3754" />
    <path
       style="fill:&fill_color;;stroke:&stroke_color;"
       d="m 163.00013,342.03959 9.62272,-4.92168 0.0978,-3.53329 0.0978,-3.53327 -5.98565,2.65518 c -3.29211,1.46034 -7.58033,3.39481 -9.5294,4.2988 -1.94907,0.90399 -3.77167,1.64362 -4.05024,1.64362 -0.27856,0 -4.72627,-1.94221 -9.88379,-4.31602 -5.15753,-2.37379 -9.45227,-4.31599 -9.54387,-4.31599 -0.0916,0 -0.16168,1.61849 -0.15574,3.59666 l 0.0109,3.59668 9.60033,4.84193 c 5.28017,2.66307 9.71198,4.85704 9.84845,4.8755 0.13649,0.0185 4.57839,-2.1812 9.87088,-4.88812 z"
       id="path3009"
       inkscape:connector-curvature="0" />
  </g>
</svg>
